<svg id="Layer_1" data-name="Layer 1" xmlns="http://www.w3.org/2000/svg" viewBox="0 0 61.56 54.58"><defs><style>.cls-1{fill:#231f20;}</style></defs><title>Artboard 1</title><path class="cls-1" d="M4.84,1.42c0-.39,0-.65.16-.76A.87.87,0,0,1,5.63.53c.29,0,.47.1.55.26a3.11,3.11,0,0,1,.16,1,3.67,3.67,0,0,1,0,.58v.52c0,.31,0,.84,0,1.55v6c0,.42,0,.79,0,1.1V12c0,.05,0,.29.05.71,0,.18,0,.45,0,.81s.05.68.05.94V15a10.69,10.69,0,0,1-.55,3.62,3.12,3.12,0,0,1-1.31,1.65,2,2,0,0,1-1.81.16,2.11,2.11,0,0,1-.52-.31,2.35,2.35,0,0,1-1-1.86.61.61,0,0,1,.16-.52.67.67,0,0,1,.5-.21.79.79,0,0,1,.76.58,1.3,1.3,0,0,0,.47.76H3.09a.73.73,0,0,1,.39.1l.05,0s0,0,.08,0a1.05,1.05,0,0,0,.63-.39,1,1,0,0,0,.13-.21,1,1,0,0,1,.13-.21,16.75,16.75,0,0,0,.39-3.33l0-.39c-.08-1.76-.13-2.65-.13-2.67,0-1.07,0-2.67.05-4.79V5.4c0-.13,0-.55.05-1.26V2.81c0-.63,0-1.07,0-1.34Z"/><path class="cls-1" d="M12,1.52a1,1,0,0,1,.16-.66.86.86,0,0,1,.6-.24,1.72,1.72,0,0,1,.39,0,.38.38,0,0,1,.24.16,1.06,1.06,0,0,1,.13.24,2.64,2.64,0,0,1,.08.31,8,8,0,0,0,0,1V7.55c0,.18,0,.47,0,.86s0,.71,0,.94c.05,1,.1,1.73.1,2.28,0,.24,0,.66.05,1.26,0,.81.05,1.42.05,1.83a11,11,0,0,1-.58,4,2.67,2.67,0,0,1-1.18,1.39,2.86,2.86,0,0,1-1.34.37A2.46,2.46,0,0,1,9.51,20a3,3,0,0,1-.66-.63h0a4.49,4.49,0,0,1-.71-1.65,12.94,12.94,0,0,1-.37-3.22V11.06a1.45,1.45,0,0,0-.08-.6l-.05-.63a5.43,5.43,0,0,1,0-1L7.7,8V4.48c0-1,.08-2,.08-3.07A1,1,0,0,1,8,.82.89.89,0,0,1,8.72.66c.45.05.66.34.66.89l0,1.81c0,.18,0,.58,0,1.18v2c0,.45-.05.81-.05,1.07,0,.55,0,1,0,1.26V10.2c0,.13,0,.37.05.71a5.84,5.84,0,0,1,0,1c0,.16,0,.37.05.6s.05.55.05.73v.55c0,.13,0,.21,0,.24v.37a21.16,21.16,0,0,0,.13,2.36v.21l.08.29L10,18a1.87,1.87,0,0,0,.5.71l0,0,.47.08H11a.46.46,0,0,0,.26,0l.13-.08.45-.42a10.47,10.47,0,0,0,.42-2.83l.05-.68v-.86c0-.45-.05-.84-.05-1.15l0-.81c0-.21,0-.47-.05-.79s-.05-.52-.05-.71V9.33a1,1,0,0,0,0-.39c0-.31-.05-.89-.05-1.7s0-1.26,0-1.65c0-.24,0-.63,0-1.21a8.45,8.45,0,0,1,0-.94V1.58Z"/><path class="cls-1" d="M18.81,18.74c.13-.5.24-1,.31-1.44V17a12,12,0,0,0-.63-3.85l-.58-.92-.45-.71-.21-.24a3.07,3.07,0,0,1-.63-.87,3,3,0,0,0-.39-.63s-.08-.13-.18-.29a4,4,0,0,1-.24-.39,5.94,5.94,0,0,1-.65-2.23,3.94,3.94,0,0,0-.11-.5,5.24,5.24,0,0,1,0-.94V5.11a6.9,6.9,0,0,1,0-.84,10.1,10.1,0,0,1,.37-1.49C16,1.39,16.76.71,17.71.71a2.06,2.06,0,0,1,1.1.31,1.76,1.76,0,0,1,.55.47l.13.16a3.27,3.27,0,0,1,.52.86l.26.52.05.34a2.48,2.48,0,0,1,0,.76.2.2,0,0,1,0,.11v.08a.59.59,0,0,0-.08.13.52.52,0,0,1-.08.13.58.58,0,0,0-.08.13.27.27,0,0,1-.16.13l-.31.08A.91.91,0,0,1,19,4.72a2.8,2.8,0,0,1-.24-.92,1.58,1.58,0,0,0-.1-.47L18.52,3a1.15,1.15,0,0,0-.39-.52.57.57,0,0,0-.31-.16,1.33,1.33,0,0,0-.37.18,2,2,0,0,0-.47.87v0l0,0a3.69,3.69,0,0,0-.24,1.39v.94a4.51,4.51,0,0,0,.1.6l0,.08a1.62,1.62,0,0,0,0,.42l.1.29c.05.13.1.24.13.29a5,5,0,0,0,.84,1.76l.63.89a.66.66,0,0,0,.11.24,1.65,1.65,0,0,0,.16.24l.29.31a1.68,1.68,0,0,0,.21.29l.18.31c.08,0,.16.16.24.39l.13.26a8.83,8.83,0,0,1,.76,2.2,7.07,7.07,0,0,1,.13,1.21V17a3.65,3.65,0,0,1-1.26,3.14,2.49,2.49,0,0,1-1.47.47A2.77,2.77,0,0,1,15.53,19a3.55,3.55,0,0,1-.42-1.81,3.41,3.41,0,0,1,.1-1v-.05a.6.6,0,0,1,.79-.55.88.88,0,0,1,.71.52v.45a4.27,4.27,0,0,0-.05.6,1.32,1.32,0,0,0,.08.31l.05.26c.26.81.6,1.26,1,1.31a2,2,0,0,0,.94-.39Z"/><path class="cls-1" d="M25.7,2.6a4.09,4.09,0,0,1-.84,0v.65l0,1.55v1.6c0,1,0,1.7,0,2.2v.68c0,.13,0,.34.05.63.05.52.08.84.08.92V14c0,.34-.05.55-.05.63,0,.68,0,1.15,0,1.44s0,.63,0,1.21l0,1.7v.16a3.82,3.82,0,0,1-.1,1.18c-.08.21-.31.34-.73.34H24a.9.9,0,0,1-.47-.13.45.45,0,0,1-.16-.16.57.57,0,0,1,0-.24c0-.11,0-.18,0-.21v-1a.29.29,0,0,0,0-.13v-.31a1.77,1.77,0,0,0,0-.55,4,4,0,0,1,0-.63V15.91c0-.45,0-1.1,0-2v-.66a6.17,6.17,0,0,1,0-.81V10.72c0-.13,0-.39,0-.76l-.08-1V2.49l-.87,0-.66,0A1,1,0,0,1,21,2.26a.77.77,0,0,1-.21-.66.74.74,0,0,1,.1-.45A.78.78,0,0,1,21,.95,2.53,2.53,0,0,1,21.4.82h.21a4.65,4.65,0,0,0,.71,0c.18,0,.58,0,1.15,0,.21,0,.58,0,1.1,0,.73,0,1.28,0,1.68.05H26.2s.08,0,.16,0a1.21,1.21,0,0,1,.76.18.88.88,0,0,1,.24.71c0,.29-.05.47-.16.55a1,1,0,0,1-.58.11Z"/><path class="cls-1" d="M35.26,29.83l-.05-.29c-.13-.71-.24-1.13-.26-1.26l-.81-3.54a19.17,19.17,0,0,0-.29-1.94c0,.39-.05.68-.05.89Q33.2,28.3,33,29a8.45,8.45,0,0,1-.26,1.47l0,.1a.71.71,0,0,1-.37.71,1,1,0,0,1-.84.08.81.81,0,0,1-.52-.71c-.1-.39-.24-1.1-.39-2.1a1.6,1.6,0,0,1-.08-.37,1.68,1.68,0,0,0-.08-.37,13.71,13.71,0,0,1-.18-1.52c-.16-1-.26-1.57-.34-1.83-.21-1.23-.34-2-.37-2.46-.08-.92-.21-1.78-.31-2.59L29.18,19c0-.18,0-.47-.08-.86l-.16-1.07q-.08-.67-.16-1c0-.24-.05-.71-.16-1.42L28.53,14a16.83,16.83,0,0,1-.16-1.7q-.12-.59.63-.79c.5-.13.86.1.94.71l.21,1.47L30.36,15v.13c0,.16,0,.52.1,1.13l.37,2.49.24,1.07s0,.24.08.6.08.66.1.84l.16,1.15c.05.39.08.6.08.63,0,.18.08.58.13,1.21s.1,1,.13,1.13l.13,1.31.24-1.83c.05-.45.1-1.42.21-2.91.05-.68.13-1.1.16-1.28.08-.34.13-.6.16-.79v-.31a7.21,7.21,0,0,1,.47-1.62c.24-.34.47-.52.68-.52a.53.53,0,0,1,.47.24,4.53,4.53,0,0,1,.37.66,16.77,16.77,0,0,1,.47,2.31l.16.86v.08q0,.2.08.63l.08.92a3.35,3.35,0,0,0,.08.58q.12.9.47,2.44,0-1,.08-1.42c0-.29.08-.94.18-1.94l.24-2.33v.05a3.56,3.56,0,0,1,.05-.5l.08-.31a8.22,8.22,0,0,1,.13-.84c0-.24.05-.52.08-.84v-.37A4.87,4.87,0,0,1,37,16.45l.16-.89c.05-.24.05-.63.1-1.15s.08-.87.1-1a3.54,3.54,0,0,1,.18-1.26.67.67,0,0,1,.87-.55.7.7,0,0,1,.65.86,13.74,13.74,0,0,0-.16,1.65l-.1.92c-.08.71-.05,1.15-.08,1.34v0a4.39,4.39,0,0,1-.13,1,3.9,3.9,0,0,1-.05.58A25.94,25.94,0,0,1,38,21.45v0c0,.37-.05.79-.05,1.23a11.52,11.52,0,0,1-.08,1.28v.24a3.61,3.61,0,0,0-.1.76l-.26,2.91v0a6.9,6.9,0,0,1-.16,1.39,1.08,1.08,0,0,0-.05.16L37,30.57a.93.93,0,0,1-.55.79l.08-.05a.9.9,0,0,1-.47.1.71.71,0,0,1-.45-.31,1.87,1.87,0,0,1-.29-.55l-.08-.26Zm-.05-8.25v0Z"/><path class="cls-1" d="M46,12.62c0,1.39-.08,2.44-.08,3.14V17c0,.34.05.6.05.79v.81a10,10,0,0,0,0,1.26v0c0,.24,0,.6,0,1.1,0,.89-.05,1.54,0,2l.08,1.55c0,.08,0,.26.05.58a4.65,4.65,0,0,0,0,.55,6,6,0,0,1,.05.63v.42c0,.89,0,1.55,0,2v.76c0,.63,0,1.07-.05,1.36s-.29.52-.81.55a.73.73,0,0,1-.58-.16.68.68,0,0,1-.24-.55l0-1.49V26.53c0-.26,0-.58,0-.92s0-.6,0-.79v0c-.05-.68-.08-1.18-.08-1.47a4.19,4.19,0,0,0,0-.6l0-.92h-.29c-.45,0-.84.05-1.18.05H42.3a3.14,3.14,0,0,1-.58,0h0l-.08,2.91c0,1.28-.05,2.25-.05,2.88v.6l0,1.89,0,.39c0,.55-.26.84-.76.84a.8.8,0,0,1-.58-.16,1.08,1.08,0,0,1-.24-.58c0-1.73,0-3,.1-3.93V22.26c0-.24,0-.63,0-1.18V18.23c0-.81,0-1.44,0-1.89,0-1,.05-1.89.05-2.62V13l0-.52a.74.74,0,0,1,.18-.66.94.94,0,0,1,.5-.18c.55,0,.86.18.92.63l-.08,5.92a7.61,7.61,0,0,0,.05.86c0,.39,0,.76,0,1.1v.13h.58c.76,0,1.34,0,1.73,0h.45v-.08c0-.5-.05-1.26-.05-2.31,0-.79.11-2,.11-3.64v-2s0-.1.05-.21a1.21,1.21,0,0,1,.08-.24.45.45,0,0,1,.24-.16.91.91,0,0,1,.47-.05,1.05,1.05,0,0,1,.55.18,1,1,0,0,1,.24.68Z"/><path class="cls-1" d="M52.23,16c.1.6.18,1,.21,1.28a1.32,1.32,0,0,0,0,.31,4.05,4.05,0,0,1,.08.42c0,.18.05.31.08.42v0L52.94,20l.24,1.89v0c0,.18.1.5.21.94l.24,1,.1.76L54,26.06l.26,1.57c.21,1.28.39,2.2.45,2.75,0,0,0,.1,0,.24a.69.69,0,0,1-.76.79l-.13,0a.9.9,0,0,1-.24,0,.39.39,0,0,1-.21-.13.92.92,0,0,1-.21-.39l-.37-1.7-.26-1.91-.13-.71a.57.57,0,0,1-.08-.31L52,24.44l-.1-.6c-.6,0-1,.05-1.28.05H50a2.69,2.69,0,0,1-.42,0l-.08.52-.24,1.1-.08.55a6.53,6.53,0,0,1-.16.89v.31l-.08.39-.18,1.07-.05.37a1.5,1.5,0,0,0,0,.31l0,.1-.08.52v.13a2.2,2.2,0,0,1-.29,1.07,1.4,1.4,0,0,1-.58.16.62.62,0,0,1-.58-.16,1,1,0,0,1-.16-.63,2.7,2.7,0,0,1,0-.5,20.29,20.29,0,0,1,.63-3.77l0,.05.1-1.13L48,24l0,0,.08-.86c.08-.73.13-1.18.16-1.36l.18-1,.18-1,.29-1.75a4,4,0,0,1,.16-.6c.05-.18.08-.31.1-.42a1.72,1.72,0,0,0,0-.39l.1-.79v0a1.06,1.06,0,0,0,.08-.26,2.14,2.14,0,0,0,.05-.26l.16-.89a1,1,0,0,0,.08-.26l.08-.39c0-.13.05-.29.08-.45q.08-1.61.86-1.89a1,1,0,0,1,.39,0,.88.88,0,0,1,.45.31,1.24,1.24,0,0,1,.29.73l.1.6.5,2.75Zm-.94,4.48-.05-.39q0-.28-.08-.79c0-.34-.05-.58-.08-.71s-.08-.47-.16-.89l-.18-1.15q-.08-.51-.08-.47l-.45,3.09v-.05c0,.5-.16,1.15-.29,2l-.18,1.26h.31l.92-.05c.13,0,.34,0,.63-.05Z"/><path class="cls-1" d="M58.91,13.51a4.09,4.09,0,0,1-.84,0v.65l0,1.55v1.6c0,1,0,1.7,0,2.2v.68c0,.13,0,.34.05.63.05.52.08.84.08.92v3.17c0,.34-.05.55-.05.63,0,.68,0,1.15,0,1.44s0,.63,0,1.21l0,1.7V30a3.82,3.82,0,0,1-.1,1.18c-.08.21-.31.34-.73.34h-.13a.9.9,0,0,1-.47-.13.45.45,0,0,1-.16-.16.57.57,0,0,1,0-.24c0-.11,0-.18,0-.21v-1a.29.29,0,0,0,0-.13v-.31a1.77,1.77,0,0,0,0-.55,4,4,0,0,1,0-.63V26.82c0-.45,0-1.1,0-2V24.2a6.17,6.17,0,0,1,0-.81V21.63c0-.13,0-.39,0-.76l-.08-1V13.41l-.87,0-.66,0a1,1,0,0,1-.71-.24.77.77,0,0,1-.21-.66.74.74,0,0,1,.11-.45.78.78,0,0,1,.18-.21,2.53,2.53,0,0,1,.37-.13h.21a4.65,4.65,0,0,0,.71,0c.18,0,.58,0,1.15,0,.21,0,.58,0,1.1,0,.73,0,1.28,0,1.68.05h-.05s.08,0,.16,0a1.21,1.21,0,0,1,.76.18.88.88,0,0,1,.24.71c0,.29-.05.47-.16.55a1,1,0,0,1-.58.11Z"/><path class="cls-1" d="M3.38,43.22a1.25,1.25,0,0,1-.18.73.67.67,0,0,1-.55.13c-.58,0-.87-.26-.87-.68V35.94L1.73,35q-.08-1.3-.08-2.75c0-1.57,0-2.75,0-3.56,0-1.6,0-2.83.05-3.69,0-.5.29-.73.79-.73a1.39,1.39,0,0,1,.37,0,.49.49,0,0,1,.24.18,1.16,1.16,0,0,1,.13.52,1.56,1.56,0,0,1,0,.39V28.6l0,2.15v1.13c0,.5,0,.87,0,1.1v.13c0,.81.05,1.36.05,1.65s0,.66,0,1.26v5.66c0,.29,0,.66-.05,1.1Z"/><path class="cls-1" d="M10.58,36.59l.63-1.49.26-.55a1.25,1.25,0,0,1,.47-.55.58.58,0,0,1,.55,0,1.07,1.07,0,0,1,.47.34.87.87,0,0,1,0,.47,2.23,2.23,0,0,1-.31.94l-.16.29V36l-.13.34,0-.08-.47,1.34-.16.39,0,0a5.56,5.56,0,0,1-.42.92l0,0c-.05.1-.16.31-.31.66s-.26.63-.39.89l-.26.55,0-.05a2.75,2.75,0,0,1-.31.63L10,41.8l-.24.34,0,0L9.19,43.4l.08.13.68,1.7a.75.75,0,0,0,.13.26l.18.39L10.61,47a7.44,7.44,0,0,1,.71,1.62q.2.59.39,1.42l.16.37.24.55.16.42A5,5,0,0,1,12.89,53c0,.34-.1.55-.24.63l-.18.08a.79.79,0,0,1-1.1-.5l-.08-.08-.13-.24-.42-1,0,.08a4.26,4.26,0,0,1-.5-1.1L10,50,9.3,48.12a5.79,5.79,0,0,1-.42-1v0l-.05-.26-.13-.24.08,1v.26a2.33,2.33,0,0,1,0,.39,1.87,1.87,0,0,0,0,.34c0,.37-.08.68-.08.94v2a3.16,3.16,0,0,0,0,.55v1a.68.68,0,0,1-.13.47,1.07,1.07,0,0,1-.86.29A.57.57,0,0,1,7,53.28V49.63c0-.92,0-1.6,0-2V43.14c0-.47,0-.87,0-1.15v0a3.88,3.88,0,0,1,.05-.55V39.89l0-1.57c0-.34,0-1,0-2V34.62a.91.91,0,0,1,.18-.55.67.67,0,0,1,.55-.13,1.53,1.53,0,0,1,.55.1,1,1,0,0,1,.24.45,3.38,3.38,0,0,1,.08.5v3.54a11.64,11.64,0,0,1,.08,1.89l.45-1v0l.31-.63a9.12,9.12,0,0,0,.47-1.1v0l.31-.84Zm1.78-.47.05-.11Z"/><path class="cls-1" d="M15.3,53.33c0,.39-.29.6-.79.6a1.72,1.72,0,0,1-.39,0,.49.49,0,0,1-.26-.21.93.93,0,0,1-.1-.52V51.44l0-1.26v0a9,9,0,0,1,0-1.21V44.21c0-.31,0-.87-.05-1.68,0-.34,0-.84,0-1.49,0-.29-.05-.52-.05-.73V40a4,4,0,0,1-.08-1l.08-3v-.94a.91.91,0,0,1,.26-.52.92.92,0,0,1,.42-.29.78.78,0,0,1,.55.1.58.58,0,0,1,.29.34l.08.21c.08.34.16.68.26,1l.18.84v-.05A6.24,6.24,0,0,1,16,37.9l.08.39,0-.05.58,1.7.76,2.72.47,1.91.58,1.83.29.84.52,2c0-.37,0-1.15-.1-2.33s-.11-2-.11-2.44V43.4l-.05-1v0A12.19,12.19,0,0,1,19,41c0-.24,0-.6,0-1.1v-.52c0-.13,0-.34-.05-.66-.05-.63-.08-1-.08-1.07a13.63,13.63,0,0,1,0-1.49c0-.66.05-1,.05-1.18a.8.8,0,0,1,.21-.71.72.72,0,0,1,.58-.16.67.67,0,0,1,.71.71l.05,1.75v.79c0,.71.05,1.28.05,1.73V40l0,1.73.05,3.77.05,2.59V51.7c0,.86,0,1.41-.05,1.62,0,.39-.31.58-.86.58a.54.54,0,0,1-.39-.16.69.69,0,0,1-.18-.26c0-.08-.05-.21-.1-.39A.09.09,0,0,1,19,53l-.16-.34-.34-.86-.16-.58-.11-.58a1.44,1.44,0,0,1-.1-.21,1.59,1.59,0,0,0-.1-.21l0-.05a.58.58,0,0,1-.08-.13l-.08-.16-.26-.76-.16-.6v0l-1.1-3.07-.08-.37-.18-.71v0a7.59,7.59,0,0,1-.24-1l-.16-.76c-.08-.24-.18-.58-.34-1l-.1-.55-.21-.84v.65q.08.87.08,1.26c0,.13,0,.34.05.66v.34c0,.34,0,.81,0,1.39v4.93l0,1V51.7c0,.29,0,.71,0,1.28Z"/><path class="cls-1" d="M27.06,53.72a8.73,8.73,0,0,1-2,.16,6.52,6.52,0,0,0-1,0,6.47,6.47,0,0,1-1.34,0h-.13a.67.67,0,0,1-.39-.16.61.61,0,0,1-.16-.24,2.5,2.5,0,0,1-.08-.39,4.5,4.5,0,0,1,0-1.31v-.1l-.05-2.12q0-1,0-1.65V46.62a10,10,0,0,1,0-1.26V40.88c0-.6-.05-1.49-.05-2.7V36.88A10.19,10.19,0,0,1,22,34.6a1,1,0,0,1,.65-.47c.39,0,.73-.05,1-.05s.86,0,1.57.05h.68a4.84,4.84,0,0,1,.68,0,1.33,1.33,0,0,1,.71.21.88.88,0,0,1,.21.68v.31a.09.09,0,0,1,0,.08s-.05.05-.05.08,0,.05-.05.08l-.08,0a.19.19,0,0,0-.1,0,.2.2,0,0,1-.11,0,.28.28,0,0,0-.13,0,.29.29,0,0,1-.13,0l-2.44-.1-.79.05v.39a2.68,2.68,0,0,1,0,.45,2.13,2.13,0,0,0,0,.37c0,.42-.05.73-.05.92v.39c0,1.28.13,2.83.16,4.61.6,0,1,0,1.34,0h1.1c.45,0,.65.24.65.73,0,.34,0,.55-.1.63a.69.69,0,0,1-.42.16c-.08,0-.34,0-.79,0a4.38,4.38,0,0,1-.86,0l-.92.1V45c0,.84,0,1.39,0,1.65v1.18a5.28,5.28,0,0,0,0,.76v.1c0,.58.05,1.39.05,2.41a8.72,8.72,0,0,1,0,1v0H26.3l.58,0H27c.52,0,.81.21.81.66v.42a.44.44,0,0,1-.13.31.54.54,0,0,1-.39.13Z"/><path class="cls-1" d="M33.66,38.37c.1.6.18,1,.21,1.28a1.32,1.32,0,0,0,0,.31,4.05,4.05,0,0,1,.08.42c0,.18.05.31.08.42v0l.31,1.55.24,1.89v0c0,.18.1.5.21.94l.24,1,.1.76.31,1.47L35.73,50c.21,1.28.39,2.2.45,2.75,0,0,0,.1,0,.24a.69.69,0,0,1-.76.79l-.13,0a.9.9,0,0,1-.24,0,.39.39,0,0,1-.21-.13.92.92,0,0,1-.21-.39l-.37-1.7L34,49.66,33.9,49a.57.57,0,0,1-.08-.31l-.34-1.86-.1-.6c-.6,0-1,.05-1.28.05h-.63a2.69,2.69,0,0,1-.42,0l-.08.52-.24,1.1-.08.55a6.53,6.53,0,0,1-.16.89v.31l-.08.39-.18,1.07-.05.37a1.5,1.5,0,0,0,0,.31l0,.1-.08.52v.13a2.2,2.2,0,0,1-.29,1.07,1.4,1.4,0,0,1-.58.16.62.62,0,0,1-.58-.16,1,1,0,0,1-.16-.63,2.69,2.69,0,0,1,0-.5,20.29,20.29,0,0,1,.63-3.77l0,.05.1-1.13.29-1.28,0,0,.08-.86c.08-.73.13-1.18.16-1.36l.18-1,.18-1,.29-1.75a4,4,0,0,1,.16-.6c.05-.18.08-.31.1-.42a1.72,1.72,0,0,0,0-.39l.1-.79v0A1.06,1.06,0,0,0,30.8,38a2.14,2.14,0,0,0,.05-.26l.16-.89a1,1,0,0,0,.08-.26l.08-.39c0-.13.05-.29.08-.45q.08-1.61.86-1.89a1,1,0,0,1,.39,0,.88.88,0,0,1,.45.31,1.25,1.25,0,0,1,.29.73l.1.6.5,2.75Zm-.94,4.48-.05-.39q0-.28-.08-.79c0-.34-.05-.58-.08-.71s-.08-.47-.16-.89l-.18-1.15q-.08-.51-.08-.47l-.45,3.09v-.05c0,.5-.16,1.15-.29,2l-.18,1.26h.31l.92-.05c.13,0,.34,0,.63-.05Z"/><path class="cls-1" d="M38,34.18l.5.21a6.18,6.18,0,0,1,3.22,2.83,3.76,3.76,0,0,0,.31.55,4.19,4.19,0,0,1,.39.73,19.09,19.09,0,0,1,.79,5.58c0,.08,0,.24.05.47a6.07,6.07,0,0,1,.05.63q0,5.07-2.12,7l-.13.18-.37.31a7.28,7.28,0,0,1-1.68,1l-.45.21L38.3,54l-.6.08c-.37.05-.58,0-.63-.08a1.27,1.27,0,0,1-.08-.31,2.25,2.25,0,0,1,0-.39v-.18l-.05-.81c0-.24,0-.6,0-1.1v-1.1a9.24,9.24,0,0,0,0-1v0c0-.29,0-.71,0-1.26s0-1,0-1.31V46.1c0-.29,0-.73-.05-1.34s-.05-1-.05-1.34V39.6c0-.34,0-.84,0-1.52s0-1.18,0-1.49c0-.13,0-.34,0-.63s0-.52,0-.71a3,3,0,0,0,0-.37,4.39,4.39,0,0,1,0-.55A.52.52,0,0,1,36.8,34c0-.05.26-.08.68-.08Zm.37,10.69c0,2.49.05,4.17.11,5l.08,1.31a3.54,3.54,0,0,1,0,.47,4,4,0,0,0,0,.52L39,52h0l.37-.21.16-.1.13-.08.08-.08.08-.08.08-.08a.72.72,0,0,0,.13-.16,1.71,1.71,0,0,1,.16-.24l.21-.29.24-.37.34-.5v0a11.75,11.75,0,0,0,.52-2.12l.08-.42v-.13c0-.31,0-.79.05-1.41s.05-1.1.05-1.44v-.52a2.41,2.41,0,0,0,0-.5c0-.13-.05-.76-.18-1.86l-.05-.47V41a9.36,9.36,0,0,0-.31-1.31l-.05-.31L40.94,39a6.19,6.19,0,0,0-1.21-1.78l-.16-.16a2.54,2.54,0,0,0-.37-.29l-.37-.24-.39-.29c0,1-.08,2-.13,3.14,0,.94,0,1.65.05,2.1a1.55,1.55,0,0,0,0,.39c0,.16,0,.37,0,.66s0,.5,0,.63Z"/><path class="cls-1" d="M49.32,53.72a8.73,8.73,0,0,1-2,.16,6.52,6.52,0,0,0-1,0,6.47,6.47,0,0,1-1.34,0h-.13a.67.67,0,0,1-.39-.16.61.61,0,0,1-.16-.24,2.5,2.5,0,0,1-.08-.39,4.5,4.5,0,0,1,0-1.31v-.1l-.05-2.12q0-1,0-1.65V46.62a10,10,0,0,1,0-1.26V40.88c0-.6-.05-1.49-.05-2.7V36.88a10.19,10.19,0,0,1,.21-2.28,1,1,0,0,1,.65-.47c.39,0,.73-.05,1-.05s.86,0,1.57.05h.68a4.84,4.84,0,0,1,.68,0,1.33,1.33,0,0,1,.71.21.88.88,0,0,1,.21.68v.31a.09.09,0,0,1,0,.08s-.05.05-.05.08,0,.05-.05.08l-.08,0a.19.19,0,0,0-.1,0,.2.2,0,0,1-.11,0,.28.28,0,0,0-.13,0,.29.29,0,0,1-.13,0l-2.44-.1-.79.05v.39a2.68,2.68,0,0,1,0,.45,2.13,2.13,0,0,0,0,.37c0,.42-.05.73-.05.92v.39c0,1.28.13,2.83.16,4.61.6,0,1,0,1.34,0h1.1c.45,0,.66.24.66.73,0,.34,0,.55-.11.63a.69.69,0,0,1-.42.16c-.08,0-.34,0-.79,0a4.38,4.38,0,0,1-.86,0l-.92.1V45c0,.84,0,1.39,0,1.65v1.18a5.28,5.28,0,0,0,0,.76v.1c0,.58.05,1.39.05,2.41a8.72,8.72,0,0,1,0,1v0h2.67l.58,0h.08c.52,0,.81.21.81.66v.42a.44.44,0,0,1-.13.31.54.54,0,0,1-.39.13Z"/><path class="cls-1" d="M51.84,34.18l.5.21a6.18,6.18,0,0,1,3.22,2.83,3.76,3.76,0,0,0,.31.55,4.19,4.19,0,0,1,.39.73,19.09,19.09,0,0,1,.79,5.58c0,.08,0,.24.05.47a6.07,6.07,0,0,1,.05.63q0,5.07-2.12,7l-.13.18-.37.31a7.28,7.28,0,0,1-1.68,1l-.45.21L52.1,54l-.6.08c-.37.05-.58,0-.63-.08a1.27,1.27,0,0,1-.08-.31,2.25,2.25,0,0,1,0-.39v-.18l-.05-.81c0-.24,0-.6,0-1.1v-1.1a9.24,9.24,0,0,0,0-1v0c0-.29,0-.71,0-1.26s0-1,0-1.31V46.1c0-.29,0-.73-.05-1.34s-.05-1-.05-1.34V39.6c0-.34,0-.84,0-1.52s0-1.18,0-1.49c0-.13,0-.34,0-.63s0-.52,0-.71a3,3,0,0,0,0-.37,4.39,4.39,0,0,1,0-.55.52.52,0,0,1,.13-.37c0-.05.26-.08.68-.08Zm.37,10.69c0,2.49.05,4.17.11,5l.08,1.31a3.54,3.54,0,0,1,0,.47,4,4,0,0,0,0,.52l.47-.24h0l.37-.21.16-.1.13-.08.08-.08.08-.08.08-.08a.72.72,0,0,0,.13-.16,1.71,1.71,0,0,1,.16-.24l.21-.29.24-.37.34-.5v0a11.75,11.75,0,0,0,.52-2.12l.08-.42v-.13c0-.31,0-.79.05-1.41s.05-1.1.05-1.44v-.52a2.41,2.41,0,0,0,0-.5c0-.13-.05-.76-.18-1.86l-.05-.47V41a9.36,9.36,0,0,0-.31-1.31l-.05-.31L54.75,39a6.19,6.19,0,0,0-1.21-1.78l-.16-.16a2.54,2.54,0,0,0-.37-.29l-.37-.24-.39-.29c0,1-.08,2-.13,3.14,0,.94,0,1.65.05,2.1a1.55,1.55,0,0,0,0,.39c0,.16,0,.37,0,.66s0,.5,0,.63Z"/></svg>